<?xml version="1.0" encoding="UTF-8"?><svg id="Layer_1" xmlns="http://www.w3.org/2000/svg" viewBox="0 0 174.64 48.66"><g><path d="M72.6,31.56c-.4,0-.8-.2-.9-.6-2.8-7.2-7.3-13.7-13-18.9-.4-.4-.5-1-.1-1.4s1-.5,1.4-.1c6,5.4,10.7,12.2,13.6,19.6,.2,.5-.1,1.1-.6,1.3-.1,.1-.2,.1-.4,.1Z" style="fill:#386990;"/><path d="M53.9,8.06c-.2,0-.4-.1-.6-.2-1.8-1.2-3.8-2.4-5.8-3.3-.5-.2-.7-.9-.5-1.4s.8-.7,1.4-.5c2.1,1,4.1,2.2,6,3.5,.5,.3,.6,.9,.3,1.4-.2,.3-.5,.5-.8,.5Z" style="fill:#386990;"/><path d="M54.4,3.66c-.2,0-.4,0-.5-.1-.9-.5-1.8-1.1-2.7-1.5-.5-.3-.7-.9-.4-1.4s.9-.7,1.4-.4c.9,.5,1.9,1,2.8,1.6,.5,.3,.6,.9,.3,1.4-.2,.2-.5,.4-.9,.4Z" style="fill:#386990;"/><path d="M1,6.46c-.3,0-.7-.1-.9-.4-.2-.5-.1-1.1,.4-1.4C3.7,2.76,7,1.26,10.5,.06c.5-.2,1.1,.1,1.3,.6,.2,.6-.1,1.2-.7,1.4C7.8,3.16,4.6,4.56,1.5,6.36c-.1,.1-.3,.1-.5,.1Z" style="fill:#386990;"/><path d="M71.4,48.06c-.5,0-1-.4-1-1-.7-23.2-19.4-42-42.5-42.9-.6,0-1-.5-1-1,0-.6,.5-1,1-1,24.3,.9,43.8,20.6,44.5,44.8,0,.6-.4,1-1,1.1h0Z" style="fill:#386990;"/><path d="M2.7,10.76c-.3,0-.7-.2-.9-.5-.3-.5-.1-1.1,.4-1.4,4-2.4,8.3-4.2,12.8-5.4,.3-.1,.6-.2,1-.2,.5-.1,1.1,.2,1.2,.8,.1,.5-.2,1.1-.8,1.2-.3,.1-.6,.1-.9,.2-4.3,1.1-8.5,2.8-12.3,5.1-.1,.1-.3,.2-.5,.2Z" style="fill:#386990;"/><path d="M66.8,46.46c-.5,0-1-.4-1-1-1.2-20.8-18.5-37.2-39.5-37.2-7,0-13.9,1.9-19.9,5.4-.5,.3-1.1,.1-1.4-.4s-.1-1.1,.4-1.4c6.4-3.6,13.6-5.6,20.9-5.6,22,0,40.2,17.2,41.5,39.1,0,.6-.4,1.1-1,1.1h0Z" style="fill:#386990;"/><path d="M62.3,45.56c-.5,0-1-.4-1-.9-1.4-18-16.7-32.1-34.8-32.1-6.7,0-13.2,1.9-18.8,5.5-.5,.3-1.1,.2-1.4-.3s-.2-1.1,.3-1.4c5.9-3.8,12.8-5.8,19.9-5.8,19.1,0,35.3,14.9,36.9,34-.1,.5-.5,.9-1.1,1h0Z" style="fill:#386990;"/><path d="M58.1,48.46c-.6,0-1-.5-1-1v-1c-.6-16.6-14-29.7-30.7-29.7-6.3,0-12.3,1.9-17.4,5.4-.5,.3-1.1,.2-1.4-.3s-.2-1.1,.3-1.4c5.5-3.8,11.9-5.8,18.6-5.8,17.8,0,32.1,13.9,32.7,31.6v1.1c-.1,.6-.5,1.1-1.1,1.1Z" style="fill:#386990;"/><path d="M53.6,44.46c-.5,0-.9-.4-1-.9,0-.2-.1-.4-.1-.6-2.2-12.7-13.1-21.9-26.1-21.9-5.6,0-11,1.8-15.6,5.1-.5,.3-1.1,.2-1.4-.2-.3-.5-.2-1.1,.2-1.4,4.9-3.6,10.7-5.5,16.8-5.5,13.9,0,25.7,9.9,28,23.6,0,.2,.1,.4,.1,.7,.1,.6-.3,1.1-.9,1.1,.1,0,0,0,0,0Z" style="fill:#386990;"/><path d="M49,42.36c-.4,0-.8-.3-1-.7-2.8-9.6-11.7-16.2-21.6-16.2-8.1,0-15.6,4.4-19.6,11.4-.3,.5-.9,.7-1.4,.4s-.7-.9-.4-1.4c4.4-7.7,12.5-12.5,21.4-12.5,10.8,0,20.5,7.2,23.5,17.6,.2,.5-.1,1.1-.7,1.3,0,.1-.1,.1-.2,.1Z" style="fill:#386990;"/><path d="M45.8,46.26c-.5,0-.9-.4-1-.9-.2-1.3-.5-2.5-.9-3.7-.2-.5,.1-1.1,.6-1.3s1.1,.1,1.3,.6c.5,1.3,.8,2.7,1,4.1,.1,.6-.3,1.1-.9,1.1,0,.1-.1,.1-.1,.1Z" style="fill:#386990;"/><path d="M43.5,39.36c-.4,0-.8-.1-1-.5-.3-.4-.5-.8-.8-1.2s-.2-1.1,.2-1.4c.4-.3,1.1-.2,1.4,.2,.3,.4,.6,.9,.9,1.4,.3,.5,.2,1.1-.3,1.4-.1,0-.2,.1-.4,.1Z" style="fill:#386990;"/><path d="M8.3,41.76c-.1,0-.3,0-.4-.1-.5-.2-.8-.8-.6-1.3,3.2-7.8,10.7-12.8,19.1-12.8,4.7,0,9.2,1.6,12.9,4.5,.4,.3,.5,1,.2,1.4s-1,.5-1.4,.2c-3.3-2.7-7.3-4.1-11.6-4.1-7.6,0-14.3,4.5-17.2,11.6-.2,.4-.6,.6-1,.6Z" style="fill:#386990;"/><path d="M12,43.16c-.1,0-.3,0-.4-.1-.5-.2-.7-.8-.5-1.3,2.7-6.2,8.9-10.2,15.7-10.2,1.5,0,3.1,.2,4.5,.6,.5,.1,.9,.7,.7,1.2-.1,.5-.7,.9-1.2,.7-1.3-.4-2.6-.5-4-.5-6,0-11.4,3.5-13.8,9-.2,.4-.6,.6-1,.6Z" style="fill:#386990;"/><path d="M19.6,39.36c-.3,0-.6-.2-.8-.4-.3-.5-.2-1.1,.3-1.4,2.9-2,6.5-2.7,10-2.2,.6,.1,.9,.6,.8,1.2-.1,.6-.6,.9-1.2,.8-3-.5-6,.2-8.5,1.8-.2,.2-.4,.2-.6,.2Z" style="fill:#386990;"/><path d="M22.3,42.26c-.4,0-.7-.2-.9-.5-.3-.5-.1-1.1,.4-1.4,2.1-1.1,4.7-1.4,7-.9,.5,.1,.9,.7,.8,1.2s-.7,.9-1.2,.8c-1.9-.4-3.9-.2-5.7,.7-.1,0-.3,.1-.4,.1Z" style="fill:#386990;"/><path d="M22,47.26c-.2,0-.4-.1-.6-.2-.5-.3-.6-1-.2-1.4,1.3-1.8,3.4-2.8,5.6-2.8,1.5,0,2.9,.5,4.1,1.3,.5,.3,.6,1,.2,1.4-.3,.5-1,.6-1.4,.2-.8-.6-1.8-.9-2.9-.9-1.6,0-3,.7-3.9,2-.3,.2-.6,.4-.9,.4Z" style="fill:#386990;"/><path d="M74.9,23.86c-.3,0-.7-.2-.9-.5-1.9-3.2-4-6.3-6.4-9.3-.3-.4-.3-1.1,.2-1.4,.4-.3,1.1-.3,1.4,.2,2.4,3,4.6,6.2,6.6,9.5,.3,.5,.1,1.1-.4,1.4-.1,.1-.3,.1-.5,.1Z" style="fill:#386990;"/></g><g><path d="M94.77,29.83h-2.52l-.44-.44v-8.03h-5.93v8.03l-.44,.44h-2.52l-.44-.44V12.28l.44-.44h2.52l.44,.44v6.34h5.93v-6.34l.44-.44h2.52l.44,.44V29.39l-.44,.44Z" style="fill:#386990;"/><path d="M101.58,30.14c-1.56,0-3.09-1.74-3.09-4.08,0-2.81,1.64-3.69,5.41-3.69h2.78v-1.59c0-1.56-.7-2.11-2.26-2.11-1.85,0-3.48,.31-4.29,.49l-.47-.39v-1.72l.39-.42c.91-.26,2.86-.52,4.89-.52,3.22,0,5.02,1.07,5.02,4.24v5.93c.18,1.09,.39,2.16,.68,2.99l-.34,.55-2.21,.47-.57-.26c-.18-.57-.42-1.59-.57-2.44-.62,.88-3.25,2.55-5.36,2.55Zm5.1-5.8h-2.94c-1.51,0-2.03,.47-2.03,1.56,0,.99,.55,1.74,.99,1.74,.94,0,3.3-1.09,3.98-2.05v-1.25Z" style="fill:#386990;"/><path d="M117.96,30.14c-2.63,0-4.29-3.07-4.29-6.66,0-4.68,2.03-7.36,6.89-7.36,.73,0,1.12,.1,1.69,.21v-5.36l.47-.44h2.34l.47,.44v15.31c.18,1.17,.44,2.26,.68,2.99l-.34,.55-2.21,.47-.57-.26c-.21-.57-.39-1.33-.52-2.18-.75,.81-2.57,2.29-4.6,2.29Zm4.29-11.15c-.6-.18-1.12-.29-1.85-.29-2.57,0-3.43,1.56-3.43,4.52,0,2.18,.78,4.34,1.87,4.34s2.73-.99,3.41-1.92v-6.66Z" style="fill:#386990;"/><path d="M133.56,30.14c-2.63,0-4.29-3.07-4.29-6.66,0-4.68,2.03-7.36,6.89-7.36,.73,0,1.12,.1,1.69,.21v-5.36l.47-.44h2.34l.47,.44v15.31c.18,1.17,.44,2.26,.68,2.99l-.34,.55-2.21,.47-.57-.26c-.21-.57-.39-1.33-.52-2.18-.75,.81-2.57,2.29-4.6,2.29Zm4.29-11.15c-.6-.18-1.12-.29-1.85-.29-2.57,0-3.43,1.56-3.43,4.52,0,2.18,.78,4.34,1.87,4.34s2.73-.99,3.41-1.92v-6.66Z" style="fill:#386990;"/><path d="M151.19,30.14c-4.47,0-6.16-3.07-6.16-6.97s1.72-7.05,6.27-7.05,6.16,3.04,6.16,6.97-1.72,7.05-6.27,7.05Zm.08-11.44c-2.39,0-3.04,1.74-3.04,4.39s.62,4.47,2.99,4.47,3.04-1.72,3.04-4.42-.62-4.45-2.99-4.45Z" style="fill:#386990;"/><path d="M171.99,29.83h-2.37l-.44-.44v-8.29c0-1.53-.31-2.39-1.27-2.39-.88,0-2.65,1.14-3.3,2.05v8.63l-.44,.44h-2.37l-.47-.44v-9.41c-.18-1.12-.39-2.13-.68-2.99l.34-.55,2.21-.47,.57,.26c.21,.57,.44,1.4,.57,2.26,.73-.75,2.83-2.37,4.86-2.37,2.47,0,3.22,1.69,3.22,4.68v8.58l-.44,.44Z" style="fill:#386990;"/></g><g><path d="M89.21,43.98c-.59,.22-1.69,.43-2.55,.43-3.05,0-4.12-2.07-4.12-4.96s1.11-5.02,4.29-5.02c1.02,0,1.81,.2,2.28,.39l.17,.17v.67l-.21,.15c-.6-.22-1.47-.36-2.27-.36-2.19,0-3.05,1.43-3.05,3.84s.81,4.09,2.97,4.09c.73,0,1.88-.17,2.49-.41l.18,.1v.69l-.18,.21Z" style="fill:#386990;"/><path d="M94.22,44.42c-2.38,0-3.14-1.72-3.14-3.73s.77-3.77,3.19-3.77,3.14,1.72,3.14,3.73-.77,3.77-3.19,3.77Zm.04-6.53c-1.61,0-2.03,1.19-2.03,2.76s.39,2.8,2,2.8,2.03-1.16,2.03-2.77-.39-2.79-2-2.79Z" style="fill:#386990;"/><path d="M105.07,44.28h-.73l-.2-.2v-4.65c0-.98-.2-1.54-.8-1.54s-1.95,.8-2.4,1.44v4.75l-.2,.2h-.73l-.2-.2v-5.35c-.14-.66-.27-1.01-.42-1.49l.14-.24,.69-.18,.24,.07c.14,.38,.32,.8,.43,1.4,.35-.38,1.61-1.37,2.7-1.37,1.27,0,1.65,.92,1.65,2.41v4.75l-.2,.2Z" style="fill:#386990;"/><path d="M110.74,44.42c-.99,0-1.95-.17-2.52-.36l-.17-.15v-.63l.21-.17c.66,.15,1.65,.35,2.49,.35,.91,0,1.74-.27,1.74-1.04,0-1.53-4.36-.88-4.36-3.47,0-1.44,1.18-2.02,2.84-2.02,.74,0,1.37,.13,1.92,.34l.14,.15v.63l-.18,.17c-.56-.18-1.23-.32-1.96-.32-1.05,0-1.61,.31-1.61,.98,0,1.61,4.36,.98,4.36,3.49,0,1.47-1.3,2.06-2.9,2.06Z" style="fill:#386990;"/><path d="M116.58,37.06h.73l.2,.2v4.65c0,.98,.2,1.54,.8,1.54s1.95-.8,2.4-1.44v-4.75l.2-.2h.73l.2,.2v5.35c.14,.7,.29,1.09,.42,1.48l-.14,.24-.69,.18-.24-.07c-.13-.35-.32-.78-.43-1.4-.35,.38-1.61,1.37-2.7,1.37-1.28,0-1.65-.92-1.65-2.41v-4.75l.2-.2Z" style="fill:#386990;"/><path d="M124.08,34.82l-.18-.18v-.57l.18-.18h3.32l.2,.2v7.62c0,1.33,.49,1.75,1.58,1.75,.32,0,1.02-.15,1.34-.29l.18,.11v.64l-.14,.18c-.36,.2-.91,.32-1.5,.32-1.64,0-2.59-.59-2.59-2.56v-7.03h-2.39Z" style="fill:#386990;"/><path d="M138.48,43.09l.21,.14v.6l-.13,.17c-.42,.22-1.3,.42-2.2,.42-1.29,0-2.21-.53-2.21-1.99v-4.43h-1.81l-.18-.18v-.57l.18-.18h1.81l.17-1.68,.13-.2,.6-.25,.22,.06v2.07h3.24l.18,.18v.57l-.18,.18h-3.24v4.34c0,.71,.39,1.11,1.18,1.11,.74,0,1.55-.17,2.03-.36Z" style="fill:#386990;"/><path d="M142.49,44.42c-.79,0-1.54-.94-1.54-2.09,0-1.44,.8-1.99,2.69-1.99h1.92v-1.12c0-1.01-.43-1.34-1.33-1.34-1.05,0-1.99,.17-2.48,.27l-.18-.15v-.62l.14-.17c.55-.17,1.6-.28,2.62-.28,1.57,0,2.35,.63,2.35,2.13v3.56c.14,.64,.27,1.04,.42,1.48l-.14,.24-.69,.18-.24-.07c-.13-.38-.31-.87-.43-1.47-.34,.48-1.97,1.44-3.11,1.44Zm3.07-3.24h-2.04c-1.11,0-1.42,.35-1.42,1.09,0,.66,.34,1.2,.62,1.2,.63,0,2.4-.78,2.84-1.43v-.87Z" style="fill:#386990;"/><path d="M154.8,44.28h-.73l-.2-.2v-4.65c0-.98-.2-1.54-.8-1.54s-1.95,.8-2.4,1.44v4.75l-.2,.2h-.73l-.2-.2v-5.35c-.14-.66-.27-1.01-.42-1.49l.14-.24,.69-.18,.24,.07c.14,.38,.32,.8,.43,1.4,.35-.38,1.61-1.37,2.7-1.37,1.27,0,1.65,.92,1.65,2.41v4.75l-.2,.2Z" style="fill:#386990;"/><path d="M163.37,43.95c-.64,.27-1.48,.46-2.4,.46-2.25,0-3.36-1.33-3.36-3.73s1.3-3.77,3.71-3.77c.9,0,1.46,.14,1.83,.31l.14,.18v.62l-.18,.13c-.55-.17-1.05-.27-1.83-.27-1.61,0-2.52,.87-2.52,2.65,0,2.16,.8,2.91,2.33,2.91,.83,0,1.72-.2,2.26-.43l.17,.1v.63l-.14,.21Z" style="fill:#386990;"/><path d="M169.25,44.7c-.71,1.67-1.11,2.51-2.14,2.51-.5,0-1.32-.38-1.69-.6l-.1-.21,.22-.67,.24-.06c.38,.25,.97,.5,1.36,.5,.56,0,.94-1.22,1.15-1.89l-2.69-6.85,.11-.25,.74-.25,.25,.13,2.21,5.74,2.38-5.74,.25-.13,.69,.29,.11,.25-3.1,7.23Z" style="fill:#386990;"/></g></svg>